<mxfile host="app.diagrams.net" agent="Mozilla/5.0 (Windows NT 10.0; Win64; x64) AppleWebKit/537.36 (KHTML, like Gecko) Chrome/130.0.0.0 Safari/537.36" version="24.8.3">
  <diagram name="Page-1" id="OEWeHujK3T0vWKD4TbO4">
    <mxGraphModel dx="1900" dy="2722" grid="1" gridSize="10" guides="1" tooltips="1" connect="1" arrows="1" fold="1" page="1" pageScale="1" pageWidth="850" pageHeight="1100" math="0" shadow="0">
      <root>
        <mxCell id="0" />
        <mxCell id="1" parent="0" />
        <mxCell id="aPck1udJZc6dXIdZvgOD-5" value="" style="edgeStyle=orthogonalEdgeStyle;orthogonalLoop=1;jettySize=auto;html=1;" edge="1" parent="1" source="aPck1udJZc6dXIdZvgOD-4">
          <mxGeometry relative="1" as="geometry">
            <mxPoint x="-600" y="-1050" as="targetPoint" />
          </mxGeometry>
        </mxCell>
        <mxCell id="aPck1udJZc6dXIdZvgOD-4" value="User rolls dice" style="strokeWidth=2;html=1;shape=mxgraph.flowchart.start_1;whiteSpace=wrap;rounded=0;fillColor=#ffe6cc;strokeColor=#d79b00;fontSize=16;fontStyle=1" vertex="1" parent="1">
          <mxGeometry x="-840" y="-1080" width="160" height="60" as="geometry" />
        </mxCell>
        <mxCell id="aPck1udJZc6dXIdZvgOD-6" value="" style="rounded=1;whiteSpace=wrap;html=1;absoluteArcSize=1;arcSize=14;strokeWidth=2;fillColor=#d5e8d4;strokeColor=#82b366;" vertex="1" parent="1">
          <mxGeometry x="-600" y="-1100" width="100" height="100" as="geometry" />
        </mxCell>
      </root>
    </mxGraphModel>
  </diagram>
</mxfile>
